<mxfile host="65bd71144e">
    <diagram id="aMBJo8B2CP7XLML57Bja" name="Page-1">
        <mxGraphModel dx="763" dy="691" grid="0" gridSize="10" guides="1" tooltips="1" connect="1" arrows="1" fold="1" page="1" pageScale="1" pageWidth="1200" pageHeight="1000" background="#000000" math="0" shadow="0">
            <root>
                <mxCell id="0"/>
                <mxCell id="1" parent="0"/>
                <mxCell id="135" style="edgeStyle=orthogonalEdgeStyle;html=1;exitX=0.5;exitY=1;exitDx=0;exitDy=0;entryX=0.5;entryY=0;entryDx=0;entryDy=0;curved=1;fillColor=#dae8fc;strokeColor=#6c8ebf;strokeWidth=3;" parent="1" source="8" target="32" edge="1">
                    <mxGeometry relative="1" as="geometry"/>
                </mxCell>
                <mxCell id="8" value="&lt;font style=&quot;font-size: 16px;&quot;&gt;Speech Regocnition&amp;nbsp;&lt;/font&gt;&lt;div&gt;&lt;font style=&quot;font-size: 16px;&quot;&gt;&lt;br&gt;&lt;/font&gt;&lt;/div&gt;&lt;div&gt;&lt;font style=&quot;font-size: 16px;&quot;&gt;- use speech recognition to recieve user input as question&amp;nbsp;&lt;/font&gt;&lt;/div&gt;" style="rounded=0;whiteSpace=wrap;html=1;" parent="1" vertex="1">
                    <mxGeometry x="961" y="235" width="211" height="124" as="geometry"/>
                </mxCell>
                <mxCell id="137" style="edgeStyle=orthogonalEdgeStyle;html=1;exitX=0.5;exitY=1;exitDx=0;exitDy=0;entryX=0.5;entryY=0;entryDx=0;entryDy=0;fillColor=#dae8fc;strokeColor=#6c8ebf;strokeWidth=3;curved=1;" parent="1" source="28" target="44" edge="1">
                    <mxGeometry relative="1" as="geometry"/>
                </mxCell>
                <mxCell id="28" value="&lt;font style=&quot;font-size: 16px;&quot;&gt;LLM&lt;/font&gt;&lt;div&gt;&lt;font style=&quot;font-size: 16px;&quot;&gt;&lt;br&gt;&lt;/font&gt;&lt;/div&gt;&lt;div&gt;&lt;font style=&quot;font-size: 16px;&quot;&gt;- use formatted prompt to generate a respose from&amp;nbsp;&lt;/font&gt;&lt;/div&gt;&lt;div&gt;&lt;font style=&quot;font-size: 16px;&quot;&gt;LLM&amp;nbsp;&lt;/font&gt;&lt;/div&gt;" style="rounded=0;whiteSpace=wrap;html=1;" parent="1" vertex="1">
                    <mxGeometry x="932.68" y="495.5" width="214" height="122" as="geometry"/>
                </mxCell>
                <mxCell id="132" style="edgeStyle=entityRelationEdgeStyle;html=1;exitX=1;exitY=0.5;exitDx=0;exitDy=0;entryX=0;entryY=0.5;entryDx=0;entryDy=0;strokeWidth=3;fillColor=#dae8fc;strokeColor=#6c8ebf;" parent="1" source="30" target="114" edge="1">
                    <mxGeometry relative="1" as="geometry"/>
                </mxCell>
                <mxCell id="30" value="&lt;font style=&quot;font-size: 16px;&quot;&gt;Start&lt;/font&gt;&lt;div&gt;&lt;font style=&quot;font-size: 16px;&quot;&gt;&lt;br&gt;&lt;/font&gt;&lt;/div&gt;&lt;div&gt;&lt;font style=&quot;font-size: 16px;&quot;&gt;- listen for &#39;hey ada&#39;&lt;/font&gt;&lt;/div&gt;" style="ellipse;whiteSpace=wrap;html=1;fillColor=#d5e8d4;strokeColor=#82b366;perimeterSpacing=0;spacing=2;spacingLeft=4;spacingBottom=3;spacingRight=4;" parent="1" vertex="1">
                    <mxGeometry x="34" y="235" width="177" height="119" as="geometry"/>
                </mxCell>
                <mxCell id="136" style="edgeStyle=orthogonalEdgeStyle;html=1;exitX=1;exitY=0.5;exitDx=0;exitDy=0;entryX=0;entryY=0.5;entryDx=0;entryDy=0;curved=1;fillColor=#dae8fc;strokeColor=#6c8ebf;strokeWidth=3;" parent="1" source="32" target="28" edge="1">
                    <mxGeometry relative="1" as="geometry"/>
                </mxCell>
                <mxCell id="32" value="&lt;font style=&quot;font-size: 16px;&quot;&gt;&lt;span style=&quot;color: rgb(0, 0, 0);&quot;&gt;Prompt&lt;/span&gt;&lt;br&gt;&lt;/font&gt;&lt;div&gt;&lt;font style=&quot;font-size: 16px;&quot;&gt;&lt;br&gt;&lt;/font&gt;&lt;/div&gt;&lt;div&gt;&lt;font style=&quot;font-size: 16px;&quot;&gt;- use OCR text along with context from image regocnized generate a stuctured&amp;nbsp;&lt;/font&gt;&lt;/div&gt;&lt;div&gt;&lt;font style=&quot;font-size: 16px;&quot;&gt;prompt for LLM&lt;/font&gt;&lt;/div&gt;" style="shape=parallelogram;perimeter=parallelogramPerimeter;whiteSpace=wrap;html=1;fixedSize=1;spacing=6;" parent="1" vertex="1">
                    <mxGeometry x="486" y="489" width="315" height="135" as="geometry"/>
                </mxCell>
                <mxCell id="42" value="&lt;font style=&quot;font-size: 16px;&quot;&gt;STOP&lt;/font&gt;&lt;div&gt;&lt;font style=&quot;font-size: 16px;&quot;&gt;&lt;br&gt;&lt;/font&gt;&lt;/div&gt;&lt;div&gt;&lt;font style=&quot;font-size: 16px;&quot;&gt;- end process and wait for next input&lt;/font&gt;&lt;/div&gt;" style="ellipse;whiteSpace=wrap;html=1;fillColor=#f8cecc;strokeColor=#b85450;" parent="1" vertex="1">
                    <mxGeometry x="893" y="758" width="247" height="132" as="geometry"/>
                </mxCell>
                <mxCell id="138" style="edgeStyle=orthogonalEdgeStyle;html=1;exitX=1;exitY=0.5;exitDx=0;exitDy=0;entryX=0;entryY=0.5;entryDx=0;entryDy=0;curved=1;fillColor=#dae8fc;strokeColor=#6c8ebf;strokeWidth=3;" parent="1" source="44" target="42" edge="1">
                    <mxGeometry relative="1" as="geometry"/>
                </mxCell>
                <mxCell id="44" value="&lt;span style=&quot;color: rgb(0, 0, 0);&quot;&gt;&lt;font style=&quot;font-size: 16px;&quot;&gt;- Text To speech&lt;/font&gt;&lt;/span&gt;&lt;div&gt;&lt;font style=&quot;font-size: 16px;&quot;&gt;&lt;br&gt;&lt;/font&gt;&lt;/div&gt;&lt;div&gt;&lt;font style=&quot;font-size: 16px;&quot;&gt;- use the output text to convert it to speech&lt;/font&gt;&lt;/div&gt;" style="shape=parallelogram;perimeter=parallelogramPerimeter;whiteSpace=wrap;html=1;fixedSize=1;" parent="1" vertex="1">
                    <mxGeometry x="503.5" y="742" width="214.5" height="134" as="geometry"/>
                </mxCell>
                <mxCell id="65" value="&lt;div&gt;&lt;b&gt;&lt;font style=&quot;font-size: 18px;&quot;&gt;&lt;br&gt;&lt;/font&gt;&lt;/b&gt;&lt;/div&gt;&lt;div&gt;&lt;br&gt;&lt;/div&gt;&lt;div&gt;&lt;b&gt;&lt;font style=&quot;font-size: 18px;&quot;&gt;&lt;br&gt;&lt;/font&gt;&lt;/b&gt;&lt;/div&gt;&lt;div&gt;&lt;b style=&quot;background-color: transparent;&quot;&gt;&lt;font style=&quot;font-size: 18px;&quot;&gt;Proximum AI MODEL ADA 1.0&lt;/font&gt;&lt;/b&gt;&lt;/div&gt;&lt;div&gt;&lt;font style=&quot;font-size: 18px;&quot;&gt;&lt;br&gt;&lt;/font&gt;&lt;/div&gt;&lt;span style=&quot;font-family: -apple-system, &amp;quot;system-ui&amp;quot;, sans-serif; text-align: start;&quot;&gt;&lt;b style=&quot;&quot;&gt;&lt;font style=&quot;color: rgb(0, 0, 0); font-size: 16px;&quot;&gt;ADA is a modular personal assistant that combines facial recognition, wake word detection, and GPT-4o-powered visual analysis to create personalized user experiences. The system activates via phrases like &quot;Hey ADA&quot; and can answer questions about what it sees through the camera. Built with Python 3.10+, ADA features user recognition for customized interactions, natural speech processing, and real-time visual feedback. The architecture includes six main modules (User Detection, Activator, TTS, User Input, Vision GPT, and Models) working together to provide a seamless experience. Setup requires an OpenAI API key and basic hardware with a webcam and microphone.&lt;/font&gt;&lt;/b&gt;&lt;/span&gt;" style="rounded=1;whiteSpace=wrap;html=1;align=center;verticalAlign=middle;spacingLeft=10;spacingRight=10;fillColor=#f5f5f5;fontColor=#333333;strokeColor=#666666;" parent="1" vertex="1">
                    <mxGeometry x="34" y="481" width="391" height="479.5" as="geometry"/>
                </mxCell>
                <mxCell id="66" value="&lt;font style=&quot;font-size: 20px;&quot;&gt;Info&lt;/font&gt;" style="rounded=0;whiteSpace=wrap;html=1;" parent="1" vertex="1">
                    <mxGeometry x="168" y="509" width="119" height="41" as="geometry"/>
                </mxCell>
                <mxCell id="70" value="&lt;font style=&quot;font-size: 16px; color: rgb(255, 255, 255);&quot;&gt;Copyright Â© 2025 Proximum AI&lt;/font&gt;" style="text;html=1;align=center;verticalAlign=middle;resizable=0;points=[];autosize=1;strokeColor=none;fillColor=none;" parent="1" vertex="1">
                    <mxGeometry x="955" y="960.5" width="238" height="31" as="geometry"/>
                </mxCell>
                <mxCell id="134" style="edgeStyle=entityRelationEdgeStyle;html=1;exitX=1;exitY=0.5;exitDx=0;exitDy=0;entryX=0;entryY=0.5;entryDx=0;entryDy=0;fillColor=#dae8fc;strokeColor=#6c8ebf;strokeWidth=3;" parent="1" source="109" target="8" edge="1">
                    <mxGeometry relative="1" as="geometry"/>
                </mxCell>
                <mxCell id="109" value="&lt;span style=&quot;background-color: transparent;&quot;&gt;&lt;font style=&quot;font-size: 16px;&quot;&gt;Trigger Start&lt;/font&gt;&lt;/span&gt;&lt;div&gt;&lt;font style=&quot;font-size: 16px;&quot;&gt;&lt;br&gt;&lt;/font&gt;&lt;div&gt;&lt;font style=&quot;font-size: 16px;&quot;&gt;greet users regognized user via User_Detection, after greeting, take input&lt;/font&gt;&lt;/div&gt;&lt;/div&gt;" style="shape=parallelogram;perimeter=parallelogramPerimeter;whiteSpace=wrap;html=1;fixedSize=1;spacingLeft=10;spacingRight=10;" parent="1" vertex="1">
                    <mxGeometry x="614" y="238" width="264" height="125" as="geometry"/>
                </mxCell>
                <mxCell id="133" style="edgeStyle=entityRelationEdgeStyle;html=1;exitX=1;exitY=0.5;exitDx=0;exitDy=0;entryX=0;entryY=0.5;entryDx=0;entryDy=0;fillColor=#dae8fc;strokeColor=#6c8ebf;strokeWidth=3;" parent="1" source="114" target="109" edge="1">
                    <mxGeometry relative="1" as="geometry"/>
                </mxCell>
                <mxCell id="114" value="&lt;font style=&quot;font-size: 16px;&quot;&gt;User Recognition&lt;br&gt;&lt;/font&gt;&lt;div&gt;&lt;font style=&quot;font-size: 16px;&quot;&gt;&lt;br&gt;&lt;/font&gt;&lt;/div&gt;&lt;div&gt;&lt;font style=&quot;font-size: 16px;&quot;&gt;- use the face detection CV model for user regognition&lt;/font&gt;&lt;/div&gt;" style="rounded=0;whiteSpace=wrap;html=1;" parent="1" vertex="1">
                    <mxGeometry x="304" y="232" width="212" height="137" as="geometry"/>
                </mxCell>
                <mxCell id="140" value="" style="shape=image;verticalLabelPosition=bottom;labelBackgroundColor=default;verticalAlign=top;aspect=fixed;imageAspect=0;image=data:image/svg+xml,PHN2ZyB4bWxucz0iaHR0cDovL3d3dy53My5vcmcvMjAwMC9zdmciIGZpbGw9Im5vbmUiIHZpZXdCb3g9IjAgMCA0MDAgMjgwIiBoZWlnaHQ9IjI4MCIgd2lkdGg9IjQwMCI+CjxyZWN0IGZpbGw9IiMzNzM3MzciIGhlaWdodD0iMjAwIiB3aWR0aD0iMjAwIi8+CjxyZWN0IGZpbGw9IiMzMzMzMzMiIGhlaWdodD0iMjAwIiB3aWR0aD0iMjAwIi8+CjxyZWN0IGZpbGw9IiM1QzVDNUMiIGhlaWdodD0iMjAwIiB3aWR0aD0iMjAwIiB5PSI0MCIgeD0iMTAwIi8+CjxyZWN0IGZpbGw9IiM3RDdEN0QiIGhlaWdodD0iMjAwIiB3aWR0aD0iMjAwIiB5PSI4MCIgeD0iMjAwIi8+CjxwYXRoIGZpbGw9IndoaXRlIiBkPSJNMjYzLjk5IDk1Ljk4MDVMMjkwLjk5MiAxNjZIMjgwLjk4MkwyNzQuNzgxIDE0OS44ODdIMjQzLjE4OUwyMzYuOTg4IDE2NkgyMjYuOTc5TDI1My45OCA5NS45ODA1SDI2My45OVpNMjQ2Ljk5OCAxMzkuODc3SDI3MC45MjRMMjU5LjAxIDEwOS4wMThMMjQ2Ljk5OCAxMzkuODc3WiIvPgo8cGF0aCBmaWxsPSJ3aGl0ZSIgZD0iTTE2MC41OCAxMjkuOTlDMTY1LjIzNSAxMjkuOTkgMTY4LjgxNiAxMjguNzM3IDE3MS4zMjIgMTI2LjIzQzE3My44MjkgMTIzLjcyNCAxNzUuMDgyIDEyMC4xNDMgMTc1LjA4MiAxMTUuNDg4Vjk0LjQ5MjJDMTc1LjA4MiA5Mi4yMTM1IDE3NC43NTcgOTAuMTc5IDE3NC4xMDUgODguMzg4N0MxNzMuNDU0IDg2LjU5ODMgMTcyLjQ5NCA4NS4wODQ2IDE3MS4yMjUgODMuODQ3N0MxNjkuOTg4IDgyLjU3ODEgMTY4LjQ3NCA4MS42MTc4IDE2Ni42ODQgODAuOTY2OEMxNjQuODkzIDgwLjMxNTggMTYyLjg1OSA3OS45OTAyIDE2MC41OCA3OS45OTAySDEzNC45OTRWMTI5Ljk5SDE2MC41OFpNMTI0Ljk4NCAxNDBWNjkuOTgwNUgxNjAuNThDMTY0LjMyNCA2OS45ODA1IDE2Ny42OTMgNzAuNTY2NCAxNzAuNjg4IDcxLjczODNDMTczLjcxNSA3Mi44Nzc2IDE3Ni4yODYgNzQuNTIxNSAxNzguNDAyIDc2LjY2OTlDMTgwLjU1MSA3OC43ODU4IDE4Mi4xOTUgODEuMzU3NCAxODMuMzM0IDg0LjM4NDhDMTg0LjUwNiA4Ny40MTIxIDE4NS4wOTIgOTAuNzgxMiAxODUuMDkyIDk0LjQ5MjJWMTE1LjQ4OEMxODUuMDkyIDExOS4xOTkgMTg0LjUwNiAxMjIuNTY4IDE4My4zMzQgMTI1LjU5NkMxODIuMTk1IDEyOC42MjMgMTgwLjU1MSAxMzEuMjExIDE3OC40MDIgMTMzLjM1OUMxNzYuMjg2IDEzNS40NzUgMTczLjcxNSAxMzcuMTE5IDE3MC42ODggMTM4LjI5MUMxNjcuNjkzIDEzOS40MyAxNjQuMzI0IDE0MCAxNjAuNTggMTQwSDEyNC45ODRaIi8+CjxwYXRoIGZpbGw9IndoaXRlIiBkPSJNNTMuOTkwMiAyOS45ODA1TDgwLjk5MjIgMTAwSDcwLjk4MjRMNjQuNzgxMiA4My44ODY3SDMzLjE4OTVMMjYuOTg4MyAxMDBIMTYuOTc4NUw0My45ODA1IDI5Ljk4MDVINTMuOTkwMlpNMzYuOTk4IDczLjg3N0g2MC45MjM4TDQ5LjAwOTggNDMuMDE3NkwzNi45OTggNzMuODc3WiIvPgo8L3N2Zz4=;" parent="1" vertex="1">
                    <mxGeometry x="494" y="22" width="212.86" height="149" as="geometry"/>
                </mxCell>
                <mxCell id="145" value="" style="rounded=0;whiteSpace=wrap;html=1;fillColor=#000000;" parent="1" vertex="1">
                    <mxGeometry x="1076" width="120" height="60" as="geometry"/>
                </mxCell>
                <mxCell id="144" value="" style="rounded=0;whiteSpace=wrap;html=1;fillColor=#000000;" parent="1" vertex="1">
                    <mxGeometry width="120" height="60" as="geometry"/>
                </mxCell>
                <mxCell id="139" value="&lt;font style=&quot;font-size: 20px;&quot;&gt;MODEL ARCHITECTURE&lt;i style=&quot;&quot;&gt;&amp;nbsp;&lt;/i&gt;&lt;/font&gt;" style="shape=hexagon;perimeter=hexagonPerimeter2;whiteSpace=wrap;html=1;fixedSize=1;fillColor=#fff2cc;strokeColor=#d6b656;strokeWidth=4;" parent="1" vertex="1">
                    <mxGeometry x="926" y="39.5" width="237" height="80" as="geometry"/>
                </mxCell>
                <mxCell id="146" value="" style="shape=image;verticalLabelPosition=bottom;labelBackgroundColor=default;verticalAlign=top;aspect=fixed;imageAspect=0;image=data:image/svg+xml,PHN2ZyB4bWxucz0iaHR0cDovL3d3dy53My5vcmcvMjAwMC9zdmciIGZpbGw9Im5vbmUiIHZpZXdCb3g9IjAgMCA0OTMgMzMyIiBoZWlnaHQ9IjMzMiIgd2lkdGg9IjQ5MyI+CjxyZWN0IHN0cm9rZS13aWR0aD0iNSIgc3Ryb2tlPSJibGFjayIgZmlsbD0iIzMzMzMzMyIgaGVpZ2h0PSIyNDUiIHdpZHRoPSIyNDUiIHk9IjIuNSIgeD0iMTI0LjUiLz4KPHBhdGggZmlsbD0iI0FDQUNBQyIgZD0iTTAuNDg0Mzc1IDMzMlYyNzUuOTg0SDMxLjE0ODRDNDAuMjEwOSAyNzUuOTg0IDQ0Ljc0MjIgMjgwLjUyOSA0NC43NDIyIDI4OS42MTdWMjk3LjU4NkM0NC43NDIyIDMwNi42NzQgNDAuMjEwOSAzMTEuMjE5IDMxLjE0ODQgMzExLjIxOUg4LjQ5MjE5VjMzMkgwLjQ4NDM3NVpNOC40OTIxOSAzMDMuMjExSDMwLjcxODhDMzIuODU0MiAzMDMuMjExIDM0LjM5MDYgMzAyLjc0MiAzNS4zMjgxIDMwMS44MDVDMzYuMjY1NiAzMDAuODY3IDM2LjczNDQgMjk5LjMzMSAzNi43MzQ0IDI5Ny4xOTVWMjkwLjAwOEMzNi43MzQ0IDI4Ny44NzIgMzYuMjY1NiAyODYuMzM2IDM1LjMyODEgMjg1LjM5OEMzNC4zOTA2IDI4NC40NjEgMzIuODU0MiAyODMuOTkyIDMwLjcxODggMjgzLjk5Mkg4LjQ5MjE5VjMwMy4yMTFaTTYyLjgyODEgMjk4LjA5NFYzMzJINTUuMTcxOVYyOTAuMzk4SDYyLjgyODFWMjk3Ljc0MkM2Mi44ODAyIDI5Ni43MjcgNjMuMTE0NiAyOTUuNzc2IDYzLjUzMTIgMjk0Ljg5MUM2My45NDc5IDI5My45NzkgNjQuNDk0OCAyOTMuMTk4IDY1LjE3MTkgMjkyLjU0N0M2NS44NzUgMjkxLjg3IDY2LjY4MjMgMjkxLjM0OSA2Ny41OTM4IDI5MC45ODRDNjguNTA1MiAyOTAuNTk0IDY5LjQ4MTggMjkwLjM5OCA3MC41MjM0IDI5MC4zOThINzguNjg3NUM3OS43NTUyIDI5MC4zOTggODAuNzQ0OCAyOTAuNjA3IDgxLjY1NjIgMjkxLjAyM0M4Mi41OTM4IDI5MS40MTQgODMuNDE0MSAyOTEuOTYxIDg0LjExNzIgMjkyLjY2NEM4NC44MjAzIDI5My4zNDEgODUuMzY3MiAyOTQuMTQ4IDg1Ljc1NzggMjk1LjA4NkM4Ni4xNzQ1IDI5Ni4wMjMgODYuMzgyOCAyOTcuMDI2IDg2LjM4MjggMjk4LjA5NFYzMDUuMTI1SDc4LjY4NzVWMjk4LjA5NEg2Mi44MjgxWk0xMzEuOTMgMzI0LjMwNUMxMzEuOTMgMzI1LjM3MiAxMzEuNzIxIDMyNi4zNzUgMTMxLjMwNSAzMjcuMzEyQzEzMC45MTQgMzI4LjI1IDEzMC4zNjcgMzI5LjA3IDEyOS42NjQgMzI5Ljc3M0MxMjguOTg3IDMzMC40NTEgMTI4LjE4IDMzMC45OTcgMTI3LjI0MiAzMzEuNDE0QzEyNi4zMzEgMzMxLjgwNSAxMjUuMzQxIDMzMiAxMjQuMjczIDMzMkgxMDMuNjA5QzEwMi41NjggMzMyIDEwMS41NzggMzMxLjgwNSAxMDAuNjQxIDMzMS40MTRDOTkuNzAzMSAzMzAuOTk3IDk4Ljg4MjggMzMwLjQ1MSA5OC4xNzk3IDMyOS43NzNDOTcuNTAyNiAzMjkuMDcgOTYuOTU1NyAzMjguMjUgOTYuNTM5MSAzMjcuMzEyQzk2LjE0ODQgMzI2LjM3NSA5NS45NTMxIDMyNS4zNzIgOTUuOTUzMSAzMjQuMzA1VjI5OC4wOTRDOTUuOTUzMSAyOTcuMDI2IDk2LjE0ODQgMjk2LjAyMyA5Ni41MzkxIDI5NS4wODZDOTYuOTU1NyAyOTQuMTQ4IDk3LjUwMjYgMjkzLjM0MSA5OC4xNzk3IDI5Mi42NjRDOTguODgyOCAyOTEuOTYxIDk5LjcwMzEgMjkxLjQxNCAxMDAuNjQxIDI5MS4wMjNDMTAxLjU3OCAyOTAuNjA3IDEwMi41NjggMjkwLjM5OCAxMDMuNjA5IDI5MC4zOThIMTI0LjI3M0MxMjUuMzQxIDI5MC4zOTggMTI2LjMzMSAyOTAuNjA3IDEyNy4yNDIgMjkxLjAyM0MxMjguMTggMjkxLjQxNCAxMjguOTg3IDI5MS45NjEgMTI5LjY2NCAyOTIuNjY0QzEzMC4zNjcgMjkzLjM0MSAxMzAuOTE0IDI5NC4xNDggMTMxLjMwNSAyOTUuMDg2QzEzMS43MjEgMjk2LjAyMyAxMzEuOTMgMjk3LjAyNiAxMzEuOTMgMjk4LjA5NFYzMjQuMzA1Wk0xMDMuNjA5IDI5OC4wOTRWMzI0LjMwNUgxMjQuMjczVjI5OC4wOTRIMTAzLjYwOVpNMTgxLjAzMSAyOTAuMzk4TDE2NS45MTQgMzEwLjcxMUwxODEuNzM0IDMzMkgxNzIuNDM4TDE2MS4yNjYgMzE2Ljk2MUwxNTAuMDU1IDMzMkgxNDAuNzU4TDE1Ni42MTcgMzEwLjcxMUwxNDEuNSAyOTAuMzk4SDE1MC43NThMMTYxLjI2NiAzMDQuNDYxTDE3MS43MzQgMjkwLjM5OEgxODEuMDMxWk0xOTguNjQ4IDI5MC4zOThWMzMySDE5MC45NTNWMjkwLjM5OEgxOTguNjQ4Wk0xOTAuNTYyIDI3NC4zODNIMTk5LjAzOVYyODIuMzkxSDE5MC41NjJWMjc0LjM4M1pNMjQ0Ljg1OSAyOTguMDk0VjMzMkgyMzcuMTY0VjI5OC4wOTRIMjE5LjU0N1YzMzJIMjExLjg5MVYyOTAuMzk4SDIxOS41NDdWMjk3Ljc0MkMyMTkuNTk5IDI5Ni43MjcgMjE5LjgzMyAyOTUuNzc2IDIyMC4yNSAyOTQuODkxQzIyMC42NjcgMjkzLjk3OSAyMjEuMjE0IDI5My4xOTggMjIxLjg5MSAyOTIuNTQ3QzIyMi41OTQgMjkxLjg3IDIyMy40MDEgMjkxLjM0OSAyMjQuMzEyIDI5MC45ODRDMjI1LjIyNCAyOTAuNTk0IDIyNi4yMDEgMjkwLjM5OCAyMjcuMjQyIDI5MC4zOThIMjM3LjE2NEMyMzguMTggMjkwLjM5OCAyMzkuMTQzIDI5MC41OTQgMjQwLjA1NSAyOTAuOTg0QzI0MC45NjYgMjkxLjM0OSAyNDEuNzczIDI5MS44NyAyNDIuNDc3IDI5Mi41NDdDMjQzLjE4IDI5My4xOTggMjQzLjc0IDI5My45NzkgMjQ0LjE1NiAyOTQuODkxQzI0NC41OTkgMjk1Ljc3NiAyNDQuODMzIDI5Ni43MjcgMjQ0Ljg1OSAyOTcuNzQyQzI0NC45MTEgMjk2LjcyNyAyNDUuMTMzIDI5NS43NzYgMjQ1LjUyMyAyOTQuODkxQzI0NS45NCAyOTMuOTc5IDI0Ni40ODcgMjkzLjE5OCAyNDcuMTY0IDI5Mi41NDdDMjQ3Ljg2NyAyOTEuODcgMjQ4LjY3NCAyOTEuMzQ5IDI0OS41ODYgMjkwLjk4NEMyNTAuNDk3IDI5MC41OTQgMjUxLjQ3NCAyOTAuMzk4IDI1Mi41MTYgMjkwLjM5OEgyNjIuNDM4QzI2My41MDUgMjkwLjM5OCAyNjQuNTA4IDI5MC42MDcgMjY1LjQ0NSAyOTEuMDIzQzI2Ni4zODMgMjkxLjQxNCAyNjcuMTkgMjkxLjk2MSAyNjcuODY3IDI5Mi42NjRDMjY4LjU3IDI5My4zNDEgMjY5LjExNyAyOTQuMTQ4IDI2OS41MDggMjk1LjA4NkMyNjkuOTI0IDI5Ni4wMjMgMjcwLjEzMyAyOTcuMDI2IDI3MC4xMzMgMjk4LjA5NFYzMzJIMjYyLjQzOFYyOTguMDk0SDI0NC44NTlaTTI4Mi45ODQgMjkwLjM5OEgyOTAuNjQxVjMyNC4zMDVIMzEyLjA4NlYyOTAuMzk4SDMxOS43ODFWMzMySDMxMi4wODZWMzI0Ljk2OUMzMTIuMDA4IDMyNS45MzIgMzExLjc0NyAzMjYuODQ0IDMxMS4zMDUgMzI3LjcwM0MzMTAuODYyIDMyOC41NjIgMzEwLjI4OSAzMjkuMzE4IDMwOS41ODYgMzI5Ljk2OUMzMDguOTA5IDMzMC41OTQgMzA4LjEyOCAzMzEuMDg5IDMwNy4yNDIgMzMxLjQ1M0MzMDYuMzU3IDMzMS44MTggMzA1LjQxOSAzMzIgMzA0LjQzIDMzMkgyOTAuNjQxQzI4OS41OTkgMzMyIDI4OC42MDkgMzMxLjgwNSAyODcuNjcyIDMzMS40MTRDMjg2LjczNCAzMzAuOTk3IDI4NS45MTQgMzMwLjQ1MSAyODUuMjExIDMyOS43NzNDMjg0LjUzNCAzMjkuMDcgMjgzLjk4NyAzMjguMjUgMjgzLjU3IDMyNy4zMTJDMjgzLjE4IDMyNi4zNzUgMjgyLjk4NCAzMjUuMzcyIDI4Mi45ODQgMzI0LjMwNVYyOTAuMzk4Wk0zNjUuNTYyIDI5OC4wOTRWMzMySDM1Ny44NjdWMjk4LjA5NEgzNDAuMjVWMzMySDMzMi41OTRWMjkwLjM5OEgzNDAuMjVWMjk3Ljc0MkMzNDAuMzAyIDI5Ni43MjcgMzQwLjUzNiAyOTUuNzc2IDM0MC45NTMgMjk0Ljg5MUMzNDEuMzcgMjkzLjk3OSAzNDEuOTE3IDI5My4xOTggMzQyLjU5NCAyOTIuNTQ3QzM0My4yOTcgMjkxLjg3IDM0NC4xMDQgMjkxLjM0OSAzNDUuMDE2IDI5MC45ODRDMzQ1LjkyNyAyOTAuNTk0IDM0Ni45MDQgMjkwLjM5OCAzNDcuOTQ1IDI5MC4zOThIMzU3Ljg2N0MzNTguODgzIDI5MC4zOTggMzU5Ljg0NiAyOTAuNTk0IDM2MC43NTggMjkwLjk4NEMzNjEuNjY5IDI5MS4zNDkgMzYyLjQ3NyAyOTEuODcgMzYzLjE4IDI5Mi41NDdDMzYzLjg4MyAyOTMuMTk4IDM2NC40NDMgMjkzLjk3OSAzNjQuODU5IDI5NC44OTFDMzY1LjMwMiAyOTUuNzc2IDM2NS41MzYgMjk2LjcyNyAzNjUuNTYyIDI5Ny43NDJDMzY1LjYxNSAyOTYuNzI3IDM2NS44MzYgMjk1Ljc3NiAzNjYuMjI3IDI5NC44OTFDMzY2LjY0MyAyOTMuOTc5IDM2Ny4xOSAyOTMuMTk4IDM2Ny44NjcgMjkyLjU0N0MzNjguNTcgMjkxLjg3IDM2OS4zNzggMjkxLjM0OSAzNzAuMjg5IDI5MC45ODRDMzcxLjIwMSAyOTAuNTk0IDM3Mi4xNzcgMjkwLjM5OCAzNzMuMjE5IDI5MC4zOThIMzgzLjE0MUMzODQuMjA4IDI5MC4zOTggMzg1LjIxMSAyOTAuNjA3IDM4Ni4xNDggMjkxLjAyM0MzODcuMDg2IDI5MS40MTQgMzg3Ljg5MyAyOTEuOTYxIDM4OC41NyAyOTIuNjY0QzM4OS4yNzMgMjkzLjM0MSAzODkuODIgMjk0LjE0OCAzOTAuMjExIDI5NS4wODZDMzkwLjYyOCAyOTYuMDIzIDM5MC44MzYgMjk3LjAyNiAzOTAuODM2IDI5OC4wOTRWMzMySDM4My4xNDFWMjk4LjA5NEgzNjUuNTYyWk00NTMuMjU4IDI3NS45ODRMNDc0Ljg1OSAzMzJINDY2Ljg1Mkw0NjEuODkxIDMxOS4xMDlINDM2LjYxN0w0MzEuNjU2IDMzMkg0MjMuNjQ4TDQ0NS4yNSAyNzUuOTg0SDQ1My4yNThaTTQzOS42NjQgMzExLjEwMkg0NTguODA1TDQ0OS4yNzMgMjg2LjQxNEw0MzkuNjY0IDMxMS4xMDJaTTQ5Mi40NzcgMjc1Ljk4NFYzMzJINDg0LjQ2OVYyNzUuOTg0SDQ5Mi40NzdaIi8+CjxyZWN0IHN0cm9rZS13aWR0aD0iNSIgc3Ryb2tlPSJibGFjayIgZmlsbD0iIzVDNUM1QyIgaGVpZ2h0PSIxOTUiIHdpZHRoPSIxOTUiIHk9IjIuNSIgeD0iMTI0LjUiLz4KPHJlY3Qgc3Ryb2tlLXdpZHRoPSI1IiBzdHJva2U9ImJsYWNrIiBmaWxsPSIjN0Q3RDdEIiBoZWlnaHQ9IjE0NSIgd2lkdGg9IjE0NSIgeT0iNTIuNSIgeD0iMTc0LjUiLz4KPHJlY3Qgc3Ryb2tlLXdpZHRoPSI1IiBzdHJva2U9ImJsYWNrIiBmaWxsPSIjOTc5Nzk3IiBoZWlnaHQ9Ijk1IiB3aWR0aD0iOTUiIHk9IjUyLjUiIHg9IjE3NC41Ii8+CjxyZWN0IHN0cm9rZS13aWR0aD0iNSIgc3Ryb2tlPSJibGFjayIgZmlsbD0iI0FDQUNBQyIgaGVpZ2h0PSI0NSIgd2lkdGg9IjQ1IiB5PSIxMDIuNSIgeD0iMjI0LjUiLz4KPC9zdmc+;" vertex="1" parent="1">
                    <mxGeometry x="31" y="22" width="234.62" height="158" as="geometry"/>
                </mxCell>
            </root>
        </mxGraphModel>
    </diagram>
</mxfile>